<svg width="142" height="33" fill="none" xmlns="http://www.w3.org/2000/svg"><path d="M0 6.737v25.871h3.758V13.875h.243l7.722 18.696h3.119l7.721-18.684h.243v18.721h3.758V6.738H21.77l-8.334 20.11h-.307L4.794 6.738H0ZM41.131 33c4.283 0 7.313-2.084 8.182-5.242l-3.618-.645c-.69 1.832-2.352 2.767-4.525 2.767-3.273 0-5.472-2.097-5.574-5.836h13.96v-1.34c0-7.01-4.244-9.752-8.693-9.752-5.472 0-9.077 4.119-9.077 10.081 0 6.026 3.554 9.967 9.345 9.967ZM35.61 21.214c.153-2.754 2.173-5.141 5.28-5.141 2.965 0 4.908 2.172 4.921 5.141H35.61ZM68.51 17.942c-.792-3.019-3.183-4.99-7.427-4.99-4.436 0-7.58 2.312-7.58 5.748 0 2.754 1.687 4.586 5.369 5.394l3.324.72c1.891.417 2.773 1.25 2.773 2.463 0 1.504-1.623 2.679-4.129 2.679-2.288 0-3.758-.973-4.218-2.88l-3.695.555c.64 3.436 3.529 5.369 7.939 5.369 4.743 0 8.028-2.489 8.028-6 0-2.742-1.764-4.434-5.369-5.256l-3.12-.707c-2.16-.505-3.093-1.225-3.08-2.539-.013-1.49 1.623-2.552 3.797-2.552 2.377 0 3.477 1.301 3.924 2.603l3.465-.607ZM82.263 13.205h-4.027V8.556h-3.823v4.65h-2.876v3.03h2.876v11.458c-.012 3.525 2.71 5.23 5.728 5.167 1.214-.013 2.032-.24 2.48-.404l-.69-3.12c-.257.05-.73.164-1.343.164-1.24 0-2.352-.404-2.352-2.59V16.237h4.026v-3.032ZM94.55 33c5.536 0 9.154-4.005 9.154-10.005 0-6.038-3.618-10.043-9.153-10.043s-9.153 4.005-9.153 10.043c0 6 3.618 10.005 9.153 10.005Zm.014-3.17c-3.618 0-5.306-3.12-5.306-6.847 0-3.714 1.688-6.873 5.306-6.873 3.592 0 5.28 3.159 5.28 6.873 0 3.726-1.688 6.846-5.28 6.846ZM107.176 8.893h1.057V5.525h1.909c.077 0 .149 0 .222-.005l1.841 3.373h1.227l-1.973-3.562c1.112-.375 1.632-1.272 1.632-2.417 0-1.524-.92-2.645-2.966-2.645h-2.949v8.624Zm1.057-4.312V1.196h1.858c1.415 0 1.96.682 1.96 1.718s-.545 1.667-1.943 1.667h-1.875ZM118.84 6.249c0 1.213-.937 1.768-1.687 1.768-.835 0-1.432-.606-1.432-1.55V2.426h-1.005v4.11c0 1.65.886 2.442 2.113 2.442.989 0 1.636-.522 1.943-1.179h.068v1.095h1.006V2.425h-1.006V6.25ZM126.324 3.874c-.315-.918-1.023-1.533-2.318-1.533-1.381 0-2.403.775-2.403 1.87 0 .892.537 1.49 1.738 1.768l1.091.253c.661.152.972.463.972.91 0 .555-.597 1.01-1.534 1.01-.823 0-1.338-.35-1.517-1.044l-.955.236c.235 1.099 1.151 1.684 2.489 1.684 1.521 0 2.556-.821 2.556-1.937 0-.901-.571-1.47-1.738-1.752l-.972-.236c-.775-.189-1.125-.446-1.125-.943 0-.556.597-.96 1.398-.96.878 0 1.24.48 1.415.927l.903-.253ZM132.593 3.874c-.315-.918-1.022-1.533-2.318-1.533-1.38 0-2.403.775-2.403 1.87 0 .892.537 1.49 1.739 1.768l1.09.253c.661.152.972.463.972.91 0 .555-.597 1.01-1.534 1.01-.822 0-1.338-.35-1.517-1.044l-.955.236c.235 1.099 1.151 1.684 2.489 1.684 1.521 0 2.557-.821 2.557-1.937 0-.901-.571-1.47-1.739-1.752l-.971-.236c-.776-.189-1.125-.446-1.125-.943 0-.556.596-.96 1.397-.96.878 0 1.24.48 1.415.927l.903-.253ZM134.227 8.893h1.005V2.425h-1.005v6.468Zm.511-7.546c.392 0 .716-.303.716-.673 0-.37-.324-.674-.716-.674-.392 0-.716.303-.716.674 0 .37.324.673.716.673ZM139 9.045c1.142 0 1.739-.607 1.943-1.028h.051v.876H142V4.632c0-2.055-1.585-2.29-2.42-2.29-.989 0-2.114.336-2.625 1.515l.954.337c.222-.472.746-.977 1.705-.977.924 0 1.38.484 1.38 1.314v.034c0 .48-.494.437-1.687.589-1.215.156-2.54.421-2.54 1.903 0 1.264.989 1.988 2.233 1.988Zm.154-.893c-.802 0-1.381-.354-1.381-1.044 0-.758.699-.994 1.483-1.095.426-.05 1.568-.168 1.738-.37v.909c0 .808-.647 1.6-1.84 1.6Z" fill="#fff"/></svg>